<?xml version="1.0" encoding="UTF-8" standalone="no"?>
<!-- Created with Inkscape (http://www.inkscape.org/) -->

<svg
   version="1.1"
   id="svg1"
   width="1367.3691"
   height="639.7088"
   viewBox="0 0 1367.3691 639.7088"
   xmlns="http://www.w3.org/2000/svg"
   xmlns:svg="http://www.w3.org/2000/svg">
  <defs
     id="defs1">
    <linearGradient
       id="swatch1">
      <stop
         style="stop-color:#000000;stop-opacity:0.48583901;"
         offset="0"
         id="stop1" />
    </linearGradient>
  </defs>
  <g
     id="g12"
     style="display:inline"
     transform="translate(-42.985635,-188.2189)">
    <path
       style="display:inline;fill:#c20303;fill-rule:evenodd;stroke:#000000;stroke-width:8;stroke-linejoin:round;stroke-dasharray:none;stroke-opacity:1;paint-order:stroke fill markers"
       d="m 968.16211,278.14453 c -2.44144,-0.0573 -4.88958,0.19818 -7.26563,0.81836 -9.50417,2.48072 -16.64306,8.95322 -22.50781,17.17188 -11.7295,16.4373 -20.11909,41.93754 -25.68164,81.2539 -8.79099,62.1352 -8.38996,111.14193 -2.06055,148.74024 -13.81525,37.05982 -29.04439,76.13159 -46.43359,112.89648 -20.30662,42.933 -43.36714,82.22598 -68.70117,109.8457 -25.33404,27.61973 -51.74277,43.05187 -81.04492,43.05664 H 119.66016 c -17.21397,0 -28.164272,-4.16282 -33.830082,-8.66015 -5.66581,-4.49734 -7.343548,-8.74912 -6.789062,-15.50977 1.10897,-13.5213 18.213245,-38.25987 58.847654,-54.63867 l -11.96289,-29.67969 c -47.662757,19.21177 -76.119628,49.29853 -78.777343,81.70313 -1.328857,16.2023 5.558472,32.68899 18.78711,43.18945 13.228638,10.50047 31.502892,15.5957 53.724613,15.5957 h 594.80859 a 16.0016,16.0016 0 0 0 0.004,0 c 40.67249,-0.007 75.6862,-21.88032 104.62109,-53.42578 28.93489,-31.54546 52.99083,-73.27745 74.04687,-117.79492 11.72197,-24.783 22.44562,-50.46647 32.43555,-75.76562 4.05026,8.48647 8.65909,15.86957 13.95313,21.99414 9.94551,11.50575 22.95921,19.01835 36.96679,19.36718 10.92006,0.27195 18.45277,-4.58701 26.12502,-10.29101 7.6722,-5.704 15.3682,-13.20449 23.4414,-22.23633 3.3503,-3.74807 6.7828,-7.9116 10.2266,-12.1582 -4.4298,36.32365 -8.8044,73.24225 -11.9825,115.16797 -2.2837,30.12801 5.5236,55.18199 20.0762,73.03711 14.5526,17.85511 35.0989,28.12127 56.336,31.86523 42.474,7.48792 90.4869,-9.32275 110.6035,-49.46289 l 74.8691,-149.38867 -28.6094,-14.33789 -74.8672,149.38867 c -12.1209,24.1858 -46.5581,37.55501 -76.4394,32.28711 -14.9407,-2.63395 -28.0489,-9.47997 -37.0879,-20.57031 -9.039,-11.09035 -14.7603,-26.81537 -12.9727,-50.39844 4.7914,-63.20888 12.3941,-116.30996 18.9043,-172.76953 0.3864,-0.62035 0.7825,-1.19511 1.168,-1.81836 33.2467,-53.75502 63.3397,-116.57758 67.627,-164.05274 2.0461,-22.65824 0.1446,-39.95567 -7.043,-53.35937 -3.5938,-6.70185 -8.993,-12.71202 -16.5273,-15.83985 -7.5344,-3.12782 -16.427,-2.45144 -23.3555,0.69532 -13.8571,6.29351 -22.6095,19.28159 -29.7832,37.13867 -7.1737,17.85708 -12.1317,41.33667 -13.5039,70.87695 -1.9598,42.19087 -5.4822,79.43901 -9.541,115.3457 -14.3664,22.50189 -29.1407,42.69127 -41.9551,57.02735 -7.13689,7.98429 -13.70847,14.18834 -18.67777,17.88281 -4.96929,3.69447 -8.4522,3.92529 -6.23632,3.98047 -3.40082,-0.0847 -7.81744,-1.66769 -13.55274,-8.30273 -5.7353,-6.63505 -11.97786,-18.18619 -16.72851,-34.88282 -1.19975,-4.21662 -2.30306,-8.76359 -3.29883,-13.625 17.54171,-47.21525 32.27096,-89.50055 44.63672,-116.04883 12.93765,-27.77616 18.00995,-54.03408 17.63865,-75.96093 -0.3712,-21.92686 -4.8162,-39.98062 -18.21678,-51.76758 -5.0252,-4.42011 -12.28311,-7.40828 -19.60742,-7.58008 z m -0.58399,33.08984 c 2.01218,3.24133 6.17542,12.70511 6.41407,26.80079 0.27904,16.48177 -3.64151,38.26882 -14.65235,61.9082 -6.65116,14.27952 -13.66208,31.97079 -21.02929,51.48242 0.59276,-20.77511 2.44171,-43.83852 6.08007,-69.55469 5.16417,-36.50057 13.78653,-58.38009 20.04493,-67.15039 1.32755,-1.86038 2.31993,-2.76109 3.14257,-3.48633 z m 141.12698,3.1875 c 2.2178,4.20701 5.0348,16.47394 3.3379,35.26563 -1.9699,21.81394 -13.3044,53.99529 -29.0391,87.42773 1.0419,-14.00409 1.9593,-28.42415 2.6621,-43.55468 1.2405,-26.70464 5.8134,-46.94428 11.2324,-60.4336 4.2407,-10.55598 9.288,-16.39374 11.8067,-18.70508 z"
       id="path13-2" />
    <g
       id="layer1"
       style="display:inline">
      <circle
         style="display:inline;fill:#a6a6a6;fill-opacity:1;fill-rule:evenodd;stroke:#000000;stroke-width:8;stroke-linejoin:round;stroke-dasharray:none;stroke-opacity:1;paint-order:stroke fill markers"
         id="path1"
         cy="587.67938"
         cx="1271.8844"
         r="134.47028" />
      <rect
         style="fill:#a6a6a6;fill-opacity:1;fill-rule:evenodd;stroke:#000000;stroke-width:8.9995;stroke-linejoin:round;stroke-dasharray:none;stroke-opacity:1;paint-order:stroke fill markers"
         id="rect2"
         width="43.548195"
         height="110.76048"
         x="1383.4021"
         y="-70.961578"
         ry="16.725876"
         transform="rotate(30)" />
      <circle
         style="display:inline;fill:#c20303;fill-opacity:1;fill-rule:evenodd;stroke:#000000;stroke-width:8;stroke-linejoin:round;stroke-dasharray:none;stroke-opacity:1;paint-order:stroke fill markers"
         id="path1-8"
         cy="587.67578"
         cx="1271.8828"
         r="76.389923" />
      <circle
         style="display:inline;fill:#a6a6a6;fill-opacity:1;fill-rule:evenodd;stroke:#000000;stroke-width:8;stroke-linejoin:round;stroke-dasharray:none;stroke-opacity:1;paint-order:stroke fill markers"
         id="path1-1"
         cy="587.67578"
         cx="1271.8828"
         r="51.470276" />
    </g>
    <path
       id="path28"
       style="fill:#000000;fill-opacity:1;fill-rule:evenodd;stroke:none;stroke-linejoin:round;paint-order:stroke fill markers"
       d="m 904.22852,416.13281 c -5.10398,58.27635 -1.35853,103.41194 8.15429,136.84571 4.96205,17.43957 11.50209,31.82181 19.8711,43.20117 h 5.05859 c -8.86799,-11.21007 -15.84991,-25.90614 -21.08203,-44.29492 -9.34748,-32.85262 -13.0941,-77.65591 -7.98242,-135.75196 z m 36.18359,0 c -5.17127,56.71656 -1.37161,98.98542 6.59766,126.99414 4.75065,16.69663 10.99322,28.24777 16.72851,34.88282 5.73529,6.63504 10.15194,8.21803 13.55274,8.30273 -2.21588,-0.0552 1.26703,-0.286 6.23632,-3.98047 4.9693,-3.69447 11.54083,-9.89852 18.67776,-17.88281 14.2737,-15.96859 31.0073,-39.02413 46.8652,-64.66406 16.4047,-26.52399 31.7912,-56.21645 43.3027,-83.65235 h -4.4296 c -11.3292,26.76174 -26.324,55.7577 -42.2754,81.54883 -15.76,25.48164 -32.4114,48.40115 -46.44534,64.10156 -7.00993,7.84228 -13.47836,13.91526 -18.08204,17.33789 -2.15755,1.60407 -3.91221,2.41838 -5.01562,2.89649 -0.0823,0.0357 -0.15213,0.0651 -0.22852,0.0977 -2.11327,-0.41893 -4.91285,-1.83872 -9.13281,-6.7207 -5.17236,-5.98381 -11.27512,-17.08477 -15.90625,-33.36133 -7.78906,-27.37541 -11.60455,-69.34669 -6.42578,-125.90039 z m 164.50199,49.92774 c -8.8363,17.22944 -18.5761,34.30577 -28.627,50.55664 -16.6233,26.87751 -34.0782,51.09453 -50.2246,69.1582 -3.3637,3.76314 -6.6514,7.19202 -9.9102,10.4043 h 5.6563 c 2.3933,-2.45941 4.7986,-5.01108 7.2363,-7.73828 16.3757,-18.32013 33.9277,-42.69201 50.6446,-69.72071 8.7736,-14.18581 17.2928,-28.99587 25.2246,-43.99218 z M 977.42969,582.33789 c 0.2278,0.0255 0.67407,-0.32735 2.07617,1.13477 0.049,0.0511 0.0717,0.17543 0.11914,0.23632 a 4.0004,4.0004 0 0 0 -2.19531,-1.37109 z" />
    <path
       style="display:inline;fill:#a6a6a6;fill-rule:evenodd;stroke:#000000;stroke-width:8;stroke-linejoin:round;stroke-dasharray:none;stroke-opacity:1;paint-order:stroke fill markers"
       d="m 331.16016,192.2207 c -6.48442,-0.0512 -12.63103,0.97773 -18.27344,3.72852 -7.52321,3.66772 -13.10136,10.09185 -17.1582,17.51172 -8.11369,14.83973 -12.60473,34.94843 -20.87696,65.10547 -16.92269,61.69296 -26.46721,129.27183 -50.60156,187.64648 -13.00315,31.45121 -34.70384,65.46986 -55.60156,97.60742 -20.89773,32.13756 -40.99679,62.10724 -50.88477,88.41602 -5.05234,13.44268 -7.0941,26.52051 -4.01758,38.76758 3.07653,12.24706 11.86104,22.70713 24.17578,29.03711 24.6295,12.65994 62.43746,13.18896 119.54493,2.80078 71.33297,-12.97589 123.42193,-24.97565 155.12109,-50.6543 15.84958,-12.83933 26.11614,-30.02143 28.49414,-50.44141 2.378,-20.41997 -2.416,-43.47412 -13.45898,-70.75 l -22.2461,9.00782 c 10.15922,25.093 13.55906,44.43867 11.86719,58.96679 -1.69187,14.52813 -7.75841,24.84322 -19.76367,34.56836 -24.01053,19.4503 -73.71451,32.84798 -144.3086,45.68946 -54.8703,9.98122 -89.23575,7.19941 -104.27929,-0.53321 -7.52177,-3.86631 -10.44815,-7.87457 -11.8711,-13.53906 -1.42294,-5.66449 -0.7521,-13.94256 3.20704,-24.47656 8.13497,-21.64459 27.58301,-51.5501 48.53906,-83.77735 20.95605,-32.22725 43.41584,-67.06156 57.66211,-101.51953 25.74799,-62.27761 35.23913,-130.94446 51.5664,-190.46679 8.35276,-30.45061 13.6486,-50.53605 18.79102,-59.94141 2.57121,-4.70268 4.4885,-6.41339 6.61719,-7.45117 2.12868,-1.03778 5.51885,-1.70726 11.84961,-1.04492 5.6786,0.5941 8.73094,2.66839 12.1914,7.40234 3.46047,4.73395 6.47455,12.40316 8.59766,21.65625 4.24621,18.50617 5.05897,42.5347 7.55469,61.99023 l 23.80468,-3.05468 c -2.23596,-17.43066 -2.90561,-42.2447 -7.96679,-64.30274 -2.53059,-11.02902 -6.1247,-21.57205 -12.61524,-30.45117 -6.49054,-8.87912 -16.73169,-15.81848 -29.07031,-17.10938 -2.23059,-0.23336 -4.42837,-0.37161 -6.58984,-0.38867 z"
       id="path4" />
    <path
       style="display:inline;fill:#c20303;fill-rule:evenodd;stroke:#000000;stroke-width:8;stroke-linejoin:round;stroke-dasharray:none;stroke-opacity:1;paint-order:stroke fill markers"
       d="m 216.42773,477.30859 c -12.79597,30.95009 -30.2448,52.20747 -51.13281,84.33008 -20.888,32.12261 -41.09524,62.10526 -51.27539,89.19141 -5.23454,13.92746 -7.50642,27.80427 -4.1543,41.14844 3.35212,13.34416 13.11299,24.87855 26.22657,31.61914 26.22715,13.48116 95.37061,8.33239 152.85094,-2.12362 l -5.72851,-31.48437 c -54.49744,9.9134 -119.04569,12.0604 -132.49157,5.149 -6.72294,-3.45569 -8.67296,-6.38768 -9.82032,-10.95508 -1.14735,-4.56739 -0.70662,-12.04647 3.07032,-22.0957 7.84281,-20.86722 27.18266,-50.76171 48.14843,-83.00391 C 213.08686,546.84179 231.54655,524.49425 246,489.53516 Z"
       id="path3" />
    <path
       style="display:inline;fill:#c20303;fill-rule:evenodd;stroke-linejoin:round;paint-order:stroke fill markers"
       d="m 125.92578,683.43945 c -47.662755,19.21177 -76.119627,49.29853 -78.777343,81.70313 -1.328857,16.2023 5.558472,32.68899 18.78711,43.18945 13.228637,10.50047 31.502892,15.5957 53.724613,15.5957 v -32 c -17.21397,0 -28.164272,-4.16282 -33.830082,-8.66015 -5.66581,-4.49734 -7.343548,-8.74912 -6.789062,-15.50977 1.108971,-13.5213 18.213247,-38.25987 58.847654,-54.63867 z"
       id="path8" />
    <rect
       style="display:inline;fill:#a6a6a6;fill-opacity:1;fill-rule:evenodd;stroke:#000000;stroke-width:8;stroke-linejoin:round;stroke-dasharray:none;stroke-opacity:1;paint-order:stroke fill markers"
       id="rect9"
       width="51.140095"
       height="61.554901"
       x="257.82657"
       y="386.54077"
       ry="13.5"
       transform="rotate(-15)" />
    <rect
       style="display:inline;fill:#a6a6a6;fill-opacity:1;fill-rule:evenodd;stroke:#000000;stroke-width:8;stroke-linejoin:round;stroke-dasharray:none;stroke-opacity:1;paint-order:stroke fill markers"
       id="rect10"
       width="51.140095"
       height="61.554901"
       x="232.22536"
       y="599.15948"
       ry="13.5"
       transform="rotate(-15)" />
    <path
       id="path14"
       style="fill:#a6a6a6;fill-opacity:1;fill-rule:evenodd;stroke:#000000;stroke-width:8;stroke-linejoin:round;stroke-dasharray:none;stroke-opacity:1;paint-order:stroke fill markers"
       d="m 763.89453,293.6582 -24.21289,106.28907 -94.75781,-0.35157 -0.11914,32 87.59375,0.32422 -41.8711,183.79688 a 16.0016,16.0016 0 0 0 -0.004,0.0254 c -2.89917,12.82126 -9.62358,37.85073 -11.08789,62.125 -0.73216,12.13713 -0.3637,24.276 3.72461,35.82226 4.0883,11.54627 13.92795,22.99608 27.77734,26.52149 16.89542,4.30078 32.31741,-5.17052 42.18164,-16.19922 9.86423,-11.02871 17.16554,-24.86229 23.27539,-38.68164 12.2197,-27.63871 19.08008,-55.79297 19.08008,-55.79297 l -31.07227,-7.6543 c 0,0 -6.5345,26.21391 -17.27539,50.50781 -5.37044,12.14697 -11.93864,23.6694 -17.85937,30.28907 -5.92073,6.61967 -8.19832,7.08902 -10.43555,6.51953 -3.23847,-0.82437 -3.79831,-1.36145 -5.50781,-6.18945 -1.7095,-4.82801 -2.53637,-13.45105 -1.94727,-23.2168 1.17769,-19.52281 7.15683,-42.84315 10.35157,-56.96875 l 0.006,-0.0234 43.45507,-190.75976 94.66407,0.35156 0.11914,-32 -87.49805,-0.32422 22.62109,-99.30274 z" />
    <circle
       style="display:inline;fill:#a6a6a6;fill-opacity:1;fill-rule:evenodd;stroke:#000000;stroke-width:8;stroke-linejoin:round;stroke-dasharray:none;stroke-opacity:1;paint-order:stroke fill markers"
       id="path1-1-5"
       cy="442.7077"
       cx="572.63153"
       r="22.125343" />
    <path
       style="fill:#a6a6a6;fill-opacity:1;fill-rule:evenodd;stroke:#000000;stroke-width:8;stroke-linejoin:round;stroke-dasharray:none;stroke-opacity:1;paint-order:stroke fill markers"
       d="m 544.28906,497.6582 -26.89453,118.0586 -0.006,0.0254 c -0.71504,3.16217 -7.66944,29.45602 -9.62305,55.49023 -0.9768,13.01711 -0.97859,26.35618 2.45118,38.92774 3.42976,12.57155 12.45667,26.19907 27.58789,30.05078 16.89542,4.30078 32.3174,-5.17052 42.18164,-16.19922 9.86423,-11.02871 17.16554,-24.86229 23.27539,-38.68164 12.2197,-27.63871 19.08008,-55.79297 19.08008,-55.79297 0,0 -63.87961,70.81461 -66.20703,73.14258 -2.32742,2.32797 -6.44143,7.45217 -10.43555,6.51953 -2.84707,-0.6648 -2.84631,-0.9914 -4.61133,-7.46094 -1.76501,-6.46953 -2.23899,-17.09209 -1.41211,-28.11133 1.65277,-22.02526 7.39732,-44.07322 8.91992,-50.80273 l 0.006,-0.0234 26.88867,-118.03516 z"
       id="path18" />
  </g>
</svg>
